<?plantuml 1.2026.1beta5?>
<svg xmlns="http://www.w3.org/2000/svg" xmlns:xlink="http://www.w3.org/1999/xlink" contentStyleType="text/css" data-diagram-type="DESCRIPTION" height="601px" preserveAspectRatio="none" style="width:797px;height:601px;background:#FFFFFF;" version="1.1" viewBox="0 0 797 601" width="797px" zoomAndPan="magnify"><defs/><g><!--cluster api--><g class="cluster" data-qualified-name="api" data-source-line="6" id="ent0003"><rect fill="none" height="343.89" rx="2.5" ry="2.5" style="stroke:#181818;stroke-width:1;" width="784" x="7" y="115.3"/><rect fill="none" height="10" style="stroke:#181818;stroke-width:1;" width="15" x="771" y="120.3"/><rect fill="none" height="2" style="stroke:#181818;stroke-width:1;" width="4" x="769" y="122.3"/><rect fill="none" height="2" style="stroke:#181818;stroke-width:1;" width="4" x="769" y="126.3"/><text fill="#000000" font-family="sans-serif" font-size="14" font-weight="bold" lengthAdjust="spacing" textLength="134.2305" x="331.8848" y="141.2951">REST API Service</text></g><!--entity api_adapter--><g class="entity" data-qualified-name="api.api_adapter" data-source-line="8" id="ent0004"><rect fill="#F1F1F1" height="46.2969" rx="2.5" ry="2.5" style="stroke:#181818;stroke-width:0.5;" width="123.1934" x="276.4" y="150.3"/><rect fill="#F1F1F1" height="10" style="stroke:#181818;stroke-width:0.5;" width="15" x="379.5934" y="155.3"/><rect fill="#F1F1F1" height="2" style="stroke:#181818;stroke-width:0.5;" width="4" x="377.5934" y="157.3"/><rect fill="#F1F1F1" height="2" style="stroke:#181818;stroke-width:0.5;" width="4" x="377.5934" y="161.3"/><text fill="#000000" font-family="sans-serif" font-size="14" lengthAdjust="spacing" textLength="83.1934" x="291.4" y="183.2951">Api-Adapter</text></g><!--entity transaction--><g class="entity" data-qualified-name="api.transaction" data-source-line="9" id="ent0005"><rect fill="#F1F1F1" height="46.2969" rx="2.5" ry="2.5" style="stroke:#181818;stroke-width:0.5;" width="122.5576" x="22.72" y="273.59"/><rect fill="#F1F1F1" height="10" style="stroke:#181818;stroke-width:0.5;" width="15" x="125.2776" y="278.59"/><rect fill="#F1F1F1" height="2" style="stroke:#181818;stroke-width:0.5;" width="4" x="123.2776" y="280.59"/><rect fill="#F1F1F1" height="2" style="stroke:#181818;stroke-width:0.5;" width="4" x="123.2776" y="284.59"/><text fill="#000000" font-family="sans-serif" font-size="14" lengthAdjust="spacing" textLength="82.5576" x="37.72" y="306.5851">Transaktion</text></g><!--entity verlauf--><g class="entity" data-qualified-name="api.verlauf" data-source-line="10" id="ent0006"><rect fill="#F1F1F1" height="46.2969" rx="2.5" ry="2.5" style="stroke:#181818;stroke-width:0.5;" width="178.7764" x="338.61" y="273.59"/><rect fill="#F1F1F1" height="10" style="stroke:#181818;stroke-width:0.5;" width="15" x="497.3864" y="278.59"/><rect fill="#F1F1F1" height="2" style="stroke:#181818;stroke-width:0.5;" width="4" x="495.3864" y="280.59"/><rect fill="#F1F1F1" height="2" style="stroke:#181818;stroke-width:0.5;" width="4" x="495.3864" y="284.59"/><text fill="#000000" font-family="sans-serif" font-size="14" lengthAdjust="spacing" textLength="138.7764" x="353.61" y="306.5851">Transaktionsverlauf</text></g><!--entity konto--><g class="entity" data-qualified-name="api.konto" data-source-line="11" id="ent0007"><rect fill="#F1F1F1" height="46.2969" rx="2.5" ry="2.5" style="stroke:#181818;stroke-width:0.5;" width="80.6738" x="552.66" y="273.59"/><rect fill="#F1F1F1" height="10" style="stroke:#181818;stroke-width:0.5;" width="15" x="613.3338" y="278.59"/><rect fill="#F1F1F1" height="2" style="stroke:#181818;stroke-width:0.5;" width="4" x="611.3338" y="280.59"/><rect fill="#F1F1F1" height="2" style="stroke:#181818;stroke-width:0.5;" width="4" x="611.3338" y="284.59"/><text fill="#000000" font-family="sans-serif" font-size="14" lengthAdjust="spacing" textLength="40.6738" x="567.66" y="306.5851">Konto</text></g><!--entity adapter--><g class="entity" data-qualified-name="api.adapter" data-source-line="12" id="ent0008"><rect fill="#F1F1F1" height="46.2969" rx="2.5" ry="2.5" style="stroke:#181818;stroke-width:0.5;" width="193.0908" x="338.45" y="396.89"/><rect fill="#F1F1F1" height="10" style="stroke:#181818;stroke-width:0.5;" width="15" x="511.5408" y="401.89"/><rect fill="#F1F1F1" height="2" style="stroke:#181818;stroke-width:0.5;" width="4" x="509.5408" y="403.89"/><rect fill="#F1F1F1" height="2" style="stroke:#181818;stroke-width:0.5;" width="4" x="509.5408" y="407.89"/><text fill="#000000" font-family="sans-serif" font-size="14" lengthAdjust="spacing" textLength="153.0908" x="353.45" y="429.8851">V$Goin-Node-Adapter</text></g><!--entity browser--><g class="entity" data-qualified-name="browser" data-source-line="1" id="ent0002"><polygon fill="#F1F1F1" points="255.7,16,265.7,6,420.2986,6,420.2986,42.2969,410.2986,52.2969,255.7,52.2969,255.7,16" style="stroke:#181818;stroke-width:0.5;"/><line style="stroke:#181818;stroke-width:0.5;" x1="410.2986" x2="420.2986" y1="16" y2="6"/><line style="stroke:#181818;stroke-width:0.5;" x1="255.7" x2="410.2986" y1="16" y2="16"/><line style="stroke:#181818;stroke-width:0.5;" x1="410.2986" x2="410.2986" y1="16" y2="52.2969"/><text fill="#000000" font-family="sans-serif" font-size="14" lengthAdjust="spacing" textLength="124.5986" x="270.7" y="38.9951">Browser Frontend</text></g><!--entity lib--><g class="entity" data-qualified-name="lib" data-source-line="18" id="ent0009"><polygon fill="#F1F1F1" points="339.53,532.19,349.53,522.19,530.4675,522.19,530.4675,574.7837,520.4675,584.7837,339.53,584.7837,339.53,532.19" style="stroke:#181818;stroke-width:0.5;"/><line style="stroke:#181818;stroke-width:0.5;" x1="520.4675" x2="530.4675" y1="532.19" y2="522.19"/><line style="stroke:#181818;stroke-width:0.5;" x1="339.53" x2="520.4675" y1="532.19" y2="532.19"/><line style="stroke:#181818;stroke-width:0.5;" x1="520.4675" x2="520.4675" y1="532.19" y2="584.7837"/><text fill="#000000" font-family="sans-serif" font-size="14" lengthAdjust="spacing" textLength="62.7607" x="354.53" y="555.1851">«extern»</text><text fill="#000000" font-family="sans-serif" font-size="14" lengthAdjust="spacing" textLength="150.9375" x="354.53" y="571.482">V$Goin Minimal Node</text></g><!--link browser to api_adapter--><g class="link" data-entity-1="ent0002" data-entity-2="ent0004" data-link-type="dependency" data-source-line="25" id="lnk10"><path d="M255.41,36.65 C192.18,43.55 112.44,57.07 92,82.3 C39.67,146.88 181.4302,164.85 270.2602,170.04" fill="none" id="browser-to-api_adapter" style="stroke:#181818;stroke-width:1;"/><polygon fill="#181818" points="276.25,170.39,267.4986,165.8719,271.2585,170.0984,267.032,173.8582,276.25,170.39" style="stroke:#181818;stroke-width:1;"/><text fill="#000000" font-family="sans-serif" font-size="13" lengthAdjust="spacing" textLength="129.2256" x="93" y="95.3669">erstelle Transaktion</text></g><!--link browser to api_adapter--><g class="link" data-entity-1="ent0002" data-entity-2="ent0004" data-link-type="dependency" data-source-line="26" id="lnk11"><path d="M291.06,52.6 C279.85,60.36 269.32,70.21 263,82.3 C249.66,107.83 269.0671,129.2357 293.4871,146.3557" fill="none" id="browser-to-api_adapter-1" style="stroke:#181818;stroke-width:1;"/><polygon fill="#181818" points="298.4,149.8,293.3268,141.3583,294.3059,146.9298,288.7344,147.9089,298.4,149.8" style="stroke:#181818;stroke-width:1;"/><text fill="#000000" font-family="sans-serif" font-size="13" lengthAdjust="spacing" textLength="102.3496" x="264" y="95.3669">fragt Verlauf ab</text></g><!--link browser to api_adapter--><g class="link" data-entity-1="ent0002" data-entity-2="ent0004" data-link-type="dependency" data-source-line="27" id="lnk12"><path d="M356.16,52.66 C362.1,61.39 367.96,71.8 371,82.3 C377.82,105.83 369.1254,126.9817 357.7554,145.0517" fill="none" id="browser-to-api_adapter-2" style="stroke:#181818;stroke-width:1;"/><polygon fill="#181818" points="354.56,150.13,362.7386,144.6428,357.2228,145.8981,355.9675,140.3822,354.56,150.13" style="stroke:#181818;stroke-width:1;"/><text fill="#000000" font-family="sans-serif" font-size="13" lengthAdjust="spacing" textLength="96.3511" x="373" y="95.3669">Kontoanfragen</text></g><!--link browser to api_adapter--><g class="link" data-entity-1="ent0002" data-entity-2="ent0004" data-link-type="dependency" data-source-line="28" id="lnk13"><path d="M420.72,43.05 C442.95,50.72 464.53,62.91 478,82.3 C503.23,118.62 454.0524,142.0242 405.7624,156.3442" fill="none" id="browser-to-api_adapter-3" style="stroke:#181818;stroke-width:1;"/><polygon fill="#181818" points="400.01,158.05,409.7758,159.3262,404.8037,156.6285,407.5014,151.6563,400.01,158.05" style="stroke:#181818;stroke-width:1;"/><text fill="#000000" font-family="sans-serif" font-size="13" lengthAdjust="spacing" textLength="150.7441" x="485" y="95.3669">Transaktion Bestätigen</text></g><!--link api_adapter to transaction--><g class="link" data-entity-1="ent0004" data-entity-2="ent0005" data-link-type="dependency" data-source-line="34" id="lnk14"><path d="M276.12,177.53 C204.74,182.53 93.87,195.25 68,226.59 C57.25,239.61 59.9315,253.1211 67.2215,267.8711" fill="none" id="api_adapter-to-transaction" style="stroke:#181818;stroke-width:1;"/><polygon fill="#181818" points="69.88,273.25,69.4783,263.4093,67.6646,268.7676,62.3064,266.9539,69.88,273.25" style="stroke:#181818;stroke-width:1;"/><text fill="#000000" font-family="sans-serif" font-size="13" lengthAdjust="spacing" textLength="129.2256" x="69" y="239.6569">erstelle Transaktion</text></g><!--link api_adapter to transaction--><g class="link" data-entity-1="ent0004" data-entity-2="ent0005" data-link-type="dependency" data-source-line="37" id="lnk17"><path d="M293.03,196.97 C274.96,206.09 253.95,216.76 235,226.59 C220.7,234.01 217.5,236.58 203,243.59 C181.99,253.76 164.0171,261.8483 143.5071,270.7183" fill="none" id="api_adapter-to-transaction-1" style="stroke:#181818;stroke-width:1;"/><polygon fill="#181818" points="138,273.1,147.8484,273.1989,142.5892,271.1153,144.6728,265.8561,138,273.1" style="stroke:#181818;stroke-width:1;"/><text fill="#000000" font-family="sans-serif" font-size="13" lengthAdjust="spacing" textLength="150.7441" x="236" y="239.6569">Transaktion Bestätigen</text></g><!--link api_adapter to verlauf--><g class="link" data-entity-1="ent0004" data-entity-2="ent0006" data-link-type="dependency" data-source-line="35" id="lnk15"><path d="M366.81,196.93 C376.57,205.5 387.02,215.81 395,226.59 C405.61,240.92 411.896,253.6295 417.636,267.7895" fill="none" id="api_adapter-to-verlauf" style="stroke:#181818;stroke-width:1;"/><polygon fill="#181818" points="419.89,273.35,420.2159,263.5065,418.0116,268.7162,412.8019,266.5119,419.89,273.35" style="stroke:#181818;stroke-width:1;"/><text fill="#000000" font-family="sans-serif" font-size="13" lengthAdjust="spacing" textLength="102.3496" x="406" y="239.6569">fragt Verlauf ab</text></g><!--link api_adapter to konto--><g class="link" data-entity-1="ent0004" data-entity-2="ent0007" data-link-type="dependency" data-source-line="36" id="lnk16"><path d="M399.98,185.23 C435.76,193.2 480.72,206.26 517,226.59 C538.63,238.72 555.0676,253.691 569.3276,268.841" fill="none" id="api_adapter-to-konto" style="stroke:#181818;stroke-width:1;"/><polygon fill="#181818" points="573.44,273.21,570.1841,263.9149,570.013,269.5691,564.3588,269.398,573.44,273.21" style="stroke:#181818;stroke-width:1;"/><text fill="#000000" font-family="sans-serif" font-size="13" lengthAdjust="spacing" textLength="96.3511" x="541" y="239.6569">Kontoanfragen</text></g><!--link transaction to adapter--><g class="link" data-entity-1="ent0005" data-entity-2="ent0008" data-link-type="dependency" data-source-line="42" id="lnk18"><path d="M77.87,320.37 C75.28,335.37 75,354.49 86,366.89 C118.53,403.55 240.7238,414.5479 332.3038,417.7879" fill="none" id="transaction-to-adapter" style="stroke:#181818;stroke-width:1;"/><polygon fill="#181818" points="338.3,418,329.4471,413.6843,333.3031,417.8232,329.1642,421.6793,338.3,418" style="stroke:#181818;stroke-width:1;"/><text fill="#000000" font-family="sans-serif" font-size="13" lengthAdjust="spacing" textLength="335.8862" x="87" y="362.9569">gib Transaktionsdaten weiter/bestätige Transaction</text></g><!--link verlauf to adapter--><g class="link" data-entity-1="ent0006" data-entity-2="ent0008" data-link-type="dependency" data-source-line="43" id="lnk19"><path d="M429.3,320.27 C430.56,342.06 432.103,368.89 433.363,390.64" fill="none" id="verlauf-to-adapter" style="stroke:#181818;stroke-width:1;"/><polygon fill="#181818" points="433.71,396.63,437.1828,387.4137,433.4208,391.6384,429.1962,387.8764,433.71,396.63" style="stroke:#181818;stroke-width:1;"/><text fill="#000000" font-family="sans-serif" font-size="13" lengthAdjust="spacing" textLength="82.1006" x="432" y="362.9569">hole Historie</text></g><!--link konto to adapter--><g class="link" data-entity-1="ent0007" data-entity-2="ent0008" data-link-type="dependency" data-source-line="44" id="lnk20"><path d="M571.71,320.19 C557.69,334.37 538.56,352.65 520,366.89 C506.13,377.53 495.1209,384.813 480.6409,393.463" fill="none" id="konto-to-adapter" style="stroke:#181818;stroke-width:1;"/><polygon fill="#181818" points="475.49,396.54,485.2677,395.3584,479.7824,393.9758,481.165,388.4905,475.49,396.54" style="stroke:#181818;stroke-width:1;"/><text fill="#000000" font-family="sans-serif" font-size="13" lengthAdjust="spacing" textLength="214.4492" x="540" y="362.9569">generiere Schlüssel / hole Assets</text></g><!--link adapter to lib--><g class="link" data-entity-1="ent0008" data-entity-2="ent0009" data-link-type="dependency" data-source-line="49" id="lnk21"><path d="M349.69,443.55 C335.16,451.23 321.91,461.49 313,475.19 C299.33,496.21 309.6032,509.8972 333.7232,522.0672" fill="none" id="adapter-to-lib" style="stroke:#181818;stroke-width:1;"/><polygon fill="#181818" points="339.08,524.77,332.8467,517.1446,334.616,522.5177,329.243,524.287,339.08,524.77" style="stroke:#181818;stroke-width:1;"/><text fill="#000000" font-family="sans-serif" font-size="13" lengthAdjust="spacing" textLength="196.7139" x="314" y="488.2569">Adresse/Transaktion Anfragen</text></g><!--link adapter to lib--><g class="link" data-entity-1="ent0008" data-entity-2="ent0009" data-link-type="dependency" data-source-line="50" id="lnk22"><path d="M484.2,443.55 C496.47,451.68 508.08,462.15 515,475.19 C524.42,492.93 517.7562,505.3784 500.8562,518.2284" fill="none" id="adapter-to-lib-1" style="stroke:#181818;stroke-width:1;"/><polygon fill="#181818" points="496.08,521.86,505.6653,519.5967,500.0601,518.8337,500.8232,513.2285,496.08,521.86" style="stroke:#181818;stroke-width:1;"/><text fill="#000000" font-family="sans-serif" font-size="13" lengthAdjust="spacing" textLength="179.9561" x="519" y="488.2569">Assets und Historie abfrage</text></g><?plantuml-src hLLBJW914DrpYWenSKNO4oGP4lp4JumOLoQcXocnuz0zwMv5Oznw0C_WCTnn4qzYJKq3FJY0WhqWqynxnQjN7vHE4EfTeySM3UmRhHogf0x2GbnyMQi1dLtOgph-7K3_sJeSGLS_g4IOvxMSWHvbMg5oKB_ezIyXEZ-2Fff7EK3-SP59U64aVonGeamseaHa3iqKVIEAUnNyqWXbnRsJMZ7SyNsGtzV0xIEQL3pSCiq_Lr6EoJVDeFlygGfojNEWfMgSaU5bxO7krtd6wmplFH59YHHEP6n-uxZYIhVRoCHEvreLYk1KAZcYGBaoLfJA6EP2GacDlnpFcVRMrzkxxvADW_cE96OdB7aBq53SD4K8IhUQSMl4qC5LKL4GyMeqbrUed8Hh0WSAe8lMJJwSd99gMzX8BG--RVx3oa0pvn2C1ApmSv7cHmAM6Be8v-60AZzNwrbcwXP--eKbLJuD6yS9PN8h-1HQCAGX2XT98cYnmXWblMx6inmyPhwBfexcfnpnJbD13gLrsaXaR67dJoHPWuGn2Ft1NJhvj1PJQ1O18heuk-rGXvrONa0Rj69Gzdprj2YwGPBP3CiUbRfbWP9pE2-Wlv-PHzI5pFa6?></g></svg>