<svg xmlns="http://www.w3.org/2000/svg" xmlns:xlink="http://www.w3.org/1999/xlink" contentStyleType="text/css" data-diagram-type="DESCRIPTION" height="601px" preserveAspectRatio="none" style="width:652px;height:601px;background:#FFFFFF;" version="1.1" viewBox="0 0 652 601" width="652px" zoomAndPan="magnify"><defs/><g><!--cluster api--><g class="cluster" data-qualified-name="api" data-source-line="6" id="ent0003"><rect fill="none" height="343.89" rx="2.5" ry="2.5" style="stroke:#181818;stroke-width:1;" width="639" x="7" y="115.3"/><rect fill="none" height="10" style="stroke:#181818;stroke-width:1;" width="15" x="626" y="120.3"/><rect fill="none" height="2" style="stroke:#181818;stroke-width:1;" width="4" x="624" y="122.3"/><rect fill="none" height="2" style="stroke:#181818;stroke-width:1;" width="4" x="624" y="126.3"/><text fill="#000000" font-family="sans-serif" font-size="14" font-weight="bold" lengthAdjust="spacing" textLength="134.2305" x="259.3848" y="141.2951">REST API Service</text></g><!--entity api_adapter--><g class="entity" data-qualified-name="api.api_adapter" data-source-line="8" id="ent0004"><rect fill="#F1F1F1" height="46.2969" rx="2.5" ry="2.5" style="stroke:#181818;stroke-width:0.5;" width="123.1934" x="208.4" y="150.3"/><rect fill="#F1F1F1" height="10" style="stroke:#181818;stroke-width:0.5;" width="15" x="311.5934" y="155.3"/><rect fill="#F1F1F1" height="2" style="stroke:#181818;stroke-width:0.5;" width="4" x="309.5934" y="157.3"/><rect fill="#F1F1F1" height="2" style="stroke:#181818;stroke-width:0.5;" width="4" x="309.5934" y="161.3"/><text fill="#000000" font-family="sans-serif" font-size="14" lengthAdjust="spacing" textLength="83.1934" x="223.4" y="183.2951">Api-Adapter</text></g><!--entity transaction--><g class="entity" data-qualified-name="api.transaction" data-source-line="9" id="ent0005"><rect fill="#F1F1F1" height="46.2969" rx="2.5" ry="2.5" style="stroke:#181818;stroke-width:0.5;" width="122.5576" x="22.72" y="273.59"/><rect fill="#F1F1F1" height="10" style="stroke:#181818;stroke-width:0.5;" width="15" x="125.2776" y="278.59"/><rect fill="#F1F1F1" height="2" style="stroke:#181818;stroke-width:0.5;" width="4" x="123.2776" y="280.59"/><rect fill="#F1F1F1" height="2" style="stroke:#181818;stroke-width:0.5;" width="4" x="123.2776" y="284.59"/><text fill="#000000" font-family="sans-serif" font-size="14" lengthAdjust="spacing" textLength="82.5576" x="37.72" y="306.5851">Transaktion</text></g><!--entity verlauf--><g class="entity" data-qualified-name="api.verlauf" data-source-line="10" id="ent0006"><rect fill="#F1F1F1" height="46.2969" rx="2.5" ry="2.5" style="stroke:#181818;stroke-width:0.5;" width="178.7764" x="180.61" y="273.59"/><rect fill="#F1F1F1" height="10" style="stroke:#181818;stroke-width:0.5;" width="15" x="339.3864" y="278.59"/><rect fill="#F1F1F1" height="2" style="stroke:#181818;stroke-width:0.5;" width="4" x="337.3864" y="280.59"/><rect fill="#F1F1F1" height="2" style="stroke:#181818;stroke-width:0.5;" width="4" x="337.3864" y="284.59"/><text fill="#000000" font-family="sans-serif" font-size="14" lengthAdjust="spacing" textLength="138.7764" x="195.61" y="306.5851">Transaktionsverlauf</text></g><!--entity konto--><g class="entity" data-qualified-name="api.konto" data-source-line="11" id="ent0007"><rect fill="#F1F1F1" height="46.2969" rx="2.5" ry="2.5" style="stroke:#181818;stroke-width:0.5;" width="80.6738" x="394.66" y="273.59"/><rect fill="#F1F1F1" height="10" style="stroke:#181818;stroke-width:0.5;" width="15" x="455.3338" y="278.59"/><rect fill="#F1F1F1" height="2" style="stroke:#181818;stroke-width:0.5;" width="4" x="453.3338" y="280.59"/><rect fill="#F1F1F1" height="2" style="stroke:#181818;stroke-width:0.5;" width="4" x="453.3338" y="284.59"/><text fill="#000000" font-family="sans-serif" font-size="14" lengthAdjust="spacing" textLength="40.6738" x="409.66" y="306.5851">Konto</text></g><!--entity adapter--><g class="entity" data-qualified-name="api.adapter" data-source-line="12" id="ent0008"><rect fill="#F1F1F1" height="46.2969" rx="2.5" ry="2.5" style="stroke:#181818;stroke-width:0.5;" width="193.0908" x="193.45" y="396.89"/><rect fill="#F1F1F1" height="10" style="stroke:#181818;stroke-width:0.5;" width="15" x="366.5408" y="401.89"/><rect fill="#F1F1F1" height="2" style="stroke:#181818;stroke-width:0.5;" width="4" x="364.5408" y="403.89"/><rect fill="#F1F1F1" height="2" style="stroke:#181818;stroke-width:0.5;" width="4" x="364.5408" y="407.89"/><text fill="#000000" font-family="sans-serif" font-size="14" lengthAdjust="spacing" textLength="153.0908" x="208.45" y="429.8851">V$Goin-Node-Adapter</text></g><!--entity browser--><g class="entity" data-qualified-name="browser" data-source-line="1" id="ent0002"><polygon fill="#F1F1F1" points="187.7,16,197.7,6,352.2986,6,352.2986,42.2969,342.2986,52.2969,187.7,52.2969,187.7,16" style="stroke:#181818;stroke-width:0.5;"/><line style="stroke:#181818;stroke-width:0.5;" x1="342.2986" x2="352.2986" y1="16" y2="6"/><line style="stroke:#181818;stroke-width:0.5;" x1="187.7" x2="342.2986" y1="16" y2="16"/><line style="stroke:#181818;stroke-width:0.5;" x1="342.2986" x2="342.2986" y1="16" y2="52.2969"/><text fill="#000000" font-family="sans-serif" font-size="14" lengthAdjust="spacing" textLength="124.5986" x="202.7" y="38.9951">Browser Frontend</text></g><!--entity lib--><g class="entity" data-qualified-name="lib" data-source-line="18" id="ent0009"><polygon fill="#F1F1F1" points="208.5,532.19,218.5,522.19,371.5059,522.19,371.5059,574.7837,361.5059,584.7837,208.5,584.7837,208.5,532.19" style="stroke:#181818;stroke-width:0.5;"/><line style="stroke:#181818;stroke-width:0.5;" x1="361.5059" x2="371.5059" y1="532.19" y2="522.19"/><line style="stroke:#181818;stroke-width:0.5;" x1="208.5" x2="361.5059" y1="532.19" y2="532.19"/><line style="stroke:#181818;stroke-width:0.5;" x1="361.5059" x2="361.5059" y1="532.19" y2="584.7837"/><text fill="#000000" font-family="sans-serif" font-size="14" lengthAdjust="spacing" textLength="62.7607" x="223.5" y="555.1851">«extern»</text><text fill="#000000" font-family="sans-serif" font-size="14" lengthAdjust="spacing" textLength="123.0059" x="223.5" y="571.482">V$Goin SPV Node</text></g><!--link browser to api_adapter--><g class="link" data-entity-1="ent0002" data-entity-2="ent0004" data-link-type="dependency" data-source-line="25" id="lnk10"><path d="M187.24,34.11 C153.35,40.32 117.18,53.83 96,82.3 C62.28,127.6 139.5501,150.9685 202.2001,162.5585" fill="none" id="browser-to-api_adapter" style="stroke:#181818;stroke-width:1;"/><polygon fill="#181818" points="208.1,163.65,199.9778,158.0796,203.1834,162.7405,198.5225,165.9461,208.1,163.65" style="stroke:#181818;stroke-width:1;"/><text fill="#000000" font-family="sans-serif" font-size="13" lengthAdjust="spacing" textLength="129.2256" x="97" y="95.3669">erstelle Transaktion</text></g><!--link browser to api_adapter--><g class="link" data-entity-1="ent0002" data-entity-2="ent0004" data-link-type="dependency" data-source-line="26" id="lnk11"><path d="M268.42,52.72 C267.85,61.89 267.28,72.6 267,82.3 C266.34,105.31 267.0884,125.6197 268.1284,143.8597" fill="none" id="browser-to-api_adapter-1" style="stroke:#181818;stroke-width:1;"/><polygon fill="#181818" points="268.47,149.85,271.9512,140.6369,268.1854,144.8581,263.9642,141.0923,268.47,149.85" style="stroke:#181818;stroke-width:1;"/><text fill="#000000" font-family="sans-serif" font-size="13" lengthAdjust="spacing" textLength="102.3496" x="268" y="95.3669">fragt Verlauf ab</text></g><!--link browser to api_adapter--><g class="link" data-entity-1="ent0002" data-entity-2="ent0004" data-link-type="dependency" data-source-line="27" id="lnk12"><path d="M342.52,52.78 C355.43,60.13 367.23,69.75 375,82.3 C392.22,110.07 366.8871,131.1079 334.3071,147.2379" fill="none" id="browser-to-api_adapter-2" style="stroke:#181818;stroke-width:1;"/><polygon fill="#181818" points="328.93,149.9,338.7704,149.4915,333.4109,147.6816,335.2209,142.3221,328.93,149.9" style="stroke:#181818;stroke-width:1;"/><text fill="#000000" font-family="sans-serif" font-size="13" lengthAdjust="spacing" textLength="96.3511" x="380" y="95.3669">Kontoanfragen</text></g><!--link api_adapter to transaction--><g class="link" data-entity-1="ent0004" data-entity-2="ent0005" data-link-type="dependency" data-source-line="33" id="lnk13"><path d="M208.03,188.77 C182.35,196.86 153.39,208.99 131,226.59 C115.25,238.97 105.6836,252.822 97.5736,267.822" fill="none" id="api_adapter-to-transaction" style="stroke:#181818;stroke-width:1;"/><polygon fill="#181818" points="94.72,273.1,102.5191,267.0855,97.098,268.7017,95.4818,263.2806,94.72,273.1" style="stroke:#181818;stroke-width:1;"/><text fill="#000000" font-family="sans-serif" font-size="13" lengthAdjust="spacing" textLength="129.2256" x="132" y="239.6569">erstelle Transaktion</text></g><!--link api_adapter to verlauf--><g class="link" data-entity-1="ent0004" data-entity-2="ent0006" data-link-type="dependency" data-source-line="34" id="lnk14"><path d="M270,196.97 C270,218.76 270,245.58 270,267.33" fill="none" id="api_adapter-to-verlauf" style="stroke:#181818;stroke-width:1;"/><polygon fill="#181818" points="270,273.33,274,264.33,270,268.33,266,264.33,270,273.33" style="stroke:#181818;stroke-width:1;"/><text fill="#000000" font-family="sans-serif" font-size="13" lengthAdjust="spacing" textLength="102.3496" x="271" y="239.6569">fragt Verlauf ab</text></g><!--link api_adapter to konto--><g class="link" data-entity-1="ent0004" data-entity-2="ent0007" data-link-type="dependency" data-source-line="35" id="lnk15"><path d="M332.09,196.95 C349.24,204.81 367.2,214.71 382,226.59 C398.16,239.56 408.9358,253.4156 418.5058,268.1756" fill="none" id="api_adapter-to-konto" style="stroke:#181818;stroke-width:1;"/><polygon fill="#181818" points="421.77,273.21,420.23,263.4823,419.0499,269.0147,413.5175,267.8345,421.77,273.21" style="stroke:#181818;stroke-width:1;"/><text fill="#000000" font-family="sans-serif" font-size="13" lengthAdjust="spacing" textLength="96.3511" x="400" y="239.6569">Kontoanfragen</text></g><!--link transaction to adapter--><g class="link" data-entity-1="ent0005" data-entity-2="ent0008" data-link-type="dependency" data-source-line="40" id="lnk16"><path d="M74.71,320.25 C70.25,335.01 67.82,353.9 78,366.89 C92.76,385.72 138.605,397.6539 187.285,405.9339" fill="none" id="transaction-to-adapter" style="stroke:#181818;stroke-width:1;"/><polygon fill="#181818" points="193.2,406.94,184.9982,401.4875,188.2708,406.1016,183.6567,409.3742,193.2,406.94" style="stroke:#181818;stroke-width:1;"/><text fill="#000000" font-family="sans-serif" font-size="13" lengthAdjust="spacing" textLength="190.0488" x="79" y="362.9569">gib Transaktionsdaten weiter</text></g><!--link verlauf to adapter--><g class="link" data-entity-1="ent0006" data-entity-2="ent0008" data-link-type="dependency" data-source-line="41" id="lnk17"><path d="M273.71,320.27 C277.31,342.06 281.7455,368.9597 285.3255,390.7097" fill="none" id="verlauf-to-adapter" style="stroke:#181818;stroke-width:1;"/><polygon fill="#181818" points="286.3,396.63,288.7852,387.0998,285.4879,391.6964,280.8914,388.3991,286.3,396.63" style="stroke:#181818;stroke-width:1;"/><text fill="#000000" font-family="sans-serif" font-size="13" lengthAdjust="spacing" textLength="82.1006" x="282" y="362.9569">hole Historie</text></g><!--link konto to adapter--><g class="link" data-entity-1="ent0007" data-entity-2="ent0008" data-link-type="dependency" data-source-line="42" id="lnk18"><path d="M417.69,320.08 C405.97,334.4 389.64,352.86 373,366.89 C360.12,377.75 349.9148,384.8896 335.9548,393.3896" fill="none" id="konto-to-adapter" style="stroke:#181818;stroke-width:1;"/><polygon fill="#181818" points="330.83,396.51,340.5974,395.2459,335.1006,393.9097,336.4369,388.4129,330.83,396.51" style="stroke:#181818;stroke-width:1;"/><text fill="#000000" font-family="sans-serif" font-size="13" lengthAdjust="spacing" textLength="214.4492" x="390" y="362.9569">generiere Schlüssel / hole Assets</text></g><!--link adapter to lib--><g class="link" data-entity-1="ent0008" data-entity-2="ent0009" data-link-type="dependency" data-source-line="47" id="lnk19"><path d="M204.69,443.55 C190.16,451.23 176.91,461.49 168,475.19 C151.8,500.1 171.1695,516.2807 202.6295,528.8707" fill="none" id="adapter-to-lib" style="stroke:#181818;stroke-width:1;"/><polygon fill="#181818" points="208.2,531.1,201.3304,524.0424,203.5579,529.2423,198.3581,531.4698,208.2,531.1" style="stroke:#181818;stroke-width:1;"/><text fill="#000000" font-family="sans-serif" font-size="13" lengthAdjust="spacing" textLength="196.7139" x="169" y="488.2569">Adresse/Transaktion Anfragen</text></g><!--link adapter to lib--><g class="link" data-entity-1="ent0008" data-entity-2="ent0009" data-link-type="dependency" data-source-line="48" id="lnk20"><path d="M339.2,443.55 C351.47,451.68 363.08,462.15 370,475.19 C379.42,492.93 372.7562,505.3784 355.8562,518.2284" fill="none" id="adapter-to-lib-1" style="stroke:#181818;stroke-width:1;"/><polygon fill="#181818" points="351.08,521.86,360.6653,519.5967,355.0601,518.8337,355.8232,513.2285,351.08,521.86" style="stroke:#181818;stroke-width:1;"/><text fill="#000000" font-family="sans-serif" font-size="13" lengthAdjust="spacing" textLength="179.9561" x="374" y="488.2569">Assets und Historie abfrage</text></g><!--SRC=[hLHTJy8m57tdLzmG4v-8xmH9He8VqHZY24ycfcCNQ1ZjqXQG65_z0VuUt_md_XBlkaxAd81W7vQLdNCvFVVS2XaZr3jABZKgk51I61Hn7PY6AF-n1hJiunJEgvRx1X2kjC4PTEHSn4ojTdA6SfPAWS90_RuRzY7eNKE8Qi67Q0MmbCFp-kzBb23bZI1cgK5Le1zPlg-2znKJcaqDbyB2ZTqFi_qEk5wWIjXyP6dklOfoGzv92vfcRrMGmScbvA9nHwPlQlTql-nlUFU9I88bSCiZjO_ZmdQxrK9BRBSVHAu8mju0CbLMJS8ZM8lmvJJ-iXodoDRdwvjBoC75N2A9sVRRtGHKL3T94BosRMUC51iR6EJT11PjHzlMCf6HC2zSEy8HIYwuxl-7AvvIgznBDconfanpoOPVl2d3RSQXRCqHhhZRWuiicWVNyGzls-WaDs5CgVQdEcPqqy4IUJ5uXG7PsgHE9FbtnRMHYgF5vgV_YIGFa30A8HnEaezthJ61ixn0G1kZZnqdFpYROtz0Shn-PaFVfEeAIUQPPnG4VkxBb8nZpmLqwNzxHA6nd2y0]--></g></svg>