<svg xmlns="http://www.w3.org/2000/svg" xmlns:xlink="http://www.w3.org/1999/xlink" contentStyleType="text/css" data-diagram-type="DESCRIPTION" height="224px" preserveAspectRatio="none" style="width:394px;height:224px;background:#FFFFFF;" version="1.1" viewBox="0 0 394 224" width="394px" zoomAndPan="magnify"><defs/><g><!--cluster HAW-ICC--><g class="cluster" data-entity="HAW-ICC" data-source-line="1" data-uid="ent0002" id="cluster_HAW-ICC"><polygon fill="none" points="16,16,26,6,377,6,377,197.59,367,207.59,16,207.59,16,16" style="stroke:#181818;stroke-width:1;"/><line style="stroke:#181818;stroke-width:1;" x1="367" x2="377" y1="16" y2="6"/><line style="stroke:#181818;stroke-width:1;" x1="16" x2="367" y1="16" y2="16"/><line style="stroke:#181818;stroke-width:1;" x1="367" x2="367" y1="16" y2="207.59"/><text fill="#000000" font-family="sans-serif" font-size="14" font-style="italic" lengthAdjust="spacing" textLength="106.832" x="139.084" y="31.9951">«Environment»</text><text fill="#000000" font-family="sans-serif" font-size="14" font-weight="bold" lengthAdjust="spacing" textLength="69.5625" x="157.7188" y="48.292">HAW-ICC</text></g><!--cluster system--><g class="cluster" data-entity="system" data-source-line="2" data-uid="ent0003" id="cluster_system"><rect fill="none" height="113.59" rx="2.5" ry="2.5" style="stroke:#181818;stroke-width:1;" width="313" x="40" y="70"/><rect fill="none" height="10" style="stroke:#181818;stroke-width:1;" width="15" x="333" y="75"/><rect fill="none" height="2" style="stroke:#181818;stroke-width:1;" width="4" x="331" y="77"/><rect fill="none" height="2" style="stroke:#181818;stroke-width:1;" width="4" x="331" y="81"/><text fill="#000000" font-family="sans-serif" font-size="14" font-weight="bold" lengthAdjust="spacing" textLength="116.6758" x="138.1621" y="95.9951">Mining System</text></g><!--entity registry--><g class="entity" data-entity="registry" data-source-line="3" data-uid="ent0004" id="entity_registry"><rect fill="#F1F1F1" height="62.5938" rx="2.5" ry="2.5" style="stroke:#181818;stroke-width:0.5;" width="110.8721" x="55.56" y="105"/><rect fill="#F1F1F1" height="10" style="stroke:#181818;stroke-width:0.5;" width="15" x="146.4321" y="110"/><rect fill="#F1F1F1" height="2" style="stroke:#181818;stroke-width:0.5;" width="4" x="144.4321" y="112"/><rect fill="#F1F1F1" height="2" style="stroke:#181818;stroke-width:0.5;" width="4" x="144.4321" y="116"/><text fill="#000000" font-family="sans-serif" font-size="14" font-style="italic" lengthAdjust="spacing" textLength="68.8721" x="71.56" y="137.9951">«Service»</text><text fill="#000000" font-family="sans-serif" font-size="14" lengthAdjust="spacing" textLength="57.9414" x="77.0253" y="154.292">Registry</text></g><!--entity p2p_network--><g class="entity" data-entity="p2p_network" data-source-line="4" data-uid="ent0005" id="entity_p2p_network"><rect fill="#F1F1F1" height="62.5938" rx="2.5" ry="2.5" style="stroke:#181818;stroke-width:0.5;" width="136.0928" x="200.95" y="105"/><rect fill="#F1F1F1" height="10" style="stroke:#181818;stroke-width:0.5;" width="15" x="317.0428" y="110"/><rect fill="#F1F1F1" height="2" style="stroke:#181818;stroke-width:0.5;" width="4" x="315.0428" y="112"/><rect fill="#F1F1F1" height="2" style="stroke:#181818;stroke-width:0.5;" width="4" x="315.0428" y="116"/><text fill="#000000" font-family="sans-serif" font-size="14" font-style="italic" lengthAdjust="spacing" textLength="68.8721" x="229.5604" y="137.9951">«Service»</text><text fill="#000000" font-family="sans-serif" font-size="14" lengthAdjust="spacing" textLength="96.0928" x="215.95" y="154.292">P2P Netzwerk</text></g><!--SRC=[oyjFILNmS0pNzNHsLh2nSSqhoopApyjDpIknirEevb80WkJyt8ByFA28Wf9lPbvcNhf2S6LnIMgkaa9YiK8nc0bLYQOwA3KzixYag1Aii0ZA0LeId5fKbfcSQcU7JLE0KO22Nsf9LNbgKJPOOu5HGNnUQabvVb4sXjvQhbe0]--></g></svg>