<svg xmlns="http://www.w3.org/2000/svg" xmlns:xlink="http://www.w3.org/1999/xlink" contentStyleType="text/css" data-diagram-type="DESCRIPTION" height="245px" preserveAspectRatio="none" style="width:235px;height:245px;background:#FFFFFF;" version="1.1" viewBox="0 0 235 245" width="235px" zoomAndPan="magnify"><defs/><g><!--cluster icc--><g class="cluster" data-entity="icc" data-source-line="1" data-uid="ent0002" id="cluster_icc"><polygon fill="none" points="16,16,26,6,218,6,218,218.59,208,228.59,16,228.59,16,16" style="stroke:#181818;stroke-width:1;"/><line style="stroke:#181818;stroke-width:1;" x1="208" x2="218" y1="16" y2="6"/><line style="stroke:#181818;stroke-width:1;" x1="16" x2="208" y1="16" y2="16"/><line style="stroke:#181818;stroke-width:1;" x1="208" x2="208" y1="16" y2="228.59"/><text fill="#000000" font-family="sans-serif" font-size="14" font-style="italic" lengthAdjust="spacing" textLength="106.832" x="59.584" y="31.9951">«Environment»</text><text fill="#000000" font-family="sans-serif" font-size="14" font-weight="bold" lengthAdjust="spacing" textLength="69.5625" x="78.2188" y="48.292">HAW-ICC</text></g><!--cluster registry--><g class="cluster" data-entity="registry" data-source-line="2" data-uid="ent0003" id="cluster_registry"><polygon fill="none" points="40,80,50,70,194,70,194,194.59,184,204.59,40,204.59,40,80" style="stroke:#181818;stroke-width:1;"/><line style="stroke:#181818;stroke-width:1;" x1="184" x2="194" y1="80" y2="70"/><line style="stroke:#181818;stroke-width:1;" x1="40" x2="184" y1="80" y2="80"/><line style="stroke:#181818;stroke-width:1;" x1="184" x2="184" y1="80" y2="204.59"/><text fill="#000000" font-family="sans-serif" font-size="14" font-style="italic" lengthAdjust="spacing" textLength="68.8721" x="78.564" y="95.9951">«Service»</text><text fill="#000000" font-family="sans-serif" font-size="14" font-weight="bold" lengthAdjust="spacing" textLength="66.1514" x="79.9243" y="112.292">Registry</text></g><!--entity dns--><g class="entity" data-entity="dns" data-source-line="3" data-uid="ent0004" id="entity_dns"><rect fill="#F1F1F1" height="62.5938" rx="2.5" ry="2.5" style="stroke:#181818;stroke-width:0.5;" width="121.1016" x="56.45" y="126"/><rect fill="#F1F1F1" height="10" style="stroke:#181818;stroke-width:0.5;" width="15" x="157.5516" y="131"/><rect fill="#F1F1F1" height="2" style="stroke:#181818;stroke-width:0.5;" width="4" x="155.5516" y="133"/><rect fill="#F1F1F1" height="2" style="stroke:#181818;stroke-width:0.5;" width="4" x="155.5516" y="137"/><text fill="#000000" font-family="sans-serif" font-size="14" font-style="italic" lengthAdjust="spacing" textLength="43.0254" x="90.4881" y="158.9951">«Pod»</text><text fill="#000000" font-family="sans-serif" font-size="14" lengthAdjust="spacing" textLength="81.1016" x="71.45" y="175.292">DNS-Server</text></g><!--SRC=[oyjFILN8J4vMI2nMKF9m3DVrT7PMKh2nSSqhoopApyjDpIkniwlcKW22F93IejJqpEAIeagm-Y0e1wGXEBMeB3CvrSvE0Q8Q19BpSmloyu16AAJa5ODrkFW5wu9KfXQ1z0JafzZPWLNNSjK20000]--></g></svg>