<svg xmlns="http://www.w3.org/2000/svg" xmlns:xlink="http://www.w3.org/1999/xlink" contentStyleType="text/css" data-diagram-type="DESCRIPTION" height="319px" preserveAspectRatio="none" style="width:729px;height:319px;background:#FFFFFF;" version="1.1" viewBox="0 0 729 319" width="729px" zoomAndPan="magnify"><defs/><g><!--cluster HAW-ICC--><g class="cluster" data-entity="HAW-ICC" data-source-line="1" data-uid="ent0002" id="cluster_HAW-ICC"><polygon fill="none" points="16,49.5659,26,39.5659,712,39.5659,712,292.1559,702,302.1559,16,302.1559,16,49.5659" style="stroke:#181818;stroke-width:1;"/><line style="stroke:#181818;stroke-width:1;" x1="702" x2="712" y1="49.5659" y2="39.5659"/><line style="stroke:#181818;stroke-width:1;" x1="16" x2="702" y1="49.5659" y2="49.5659"/><line style="stroke:#181818;stroke-width:1;" x1="702" x2="702" y1="49.5659" y2="302.1559"/><text fill="#000000" font-family="sans-serif" font-size="14" font-style="italic" lengthAdjust="spacing" textLength="106.832" x="306.584" y="65.561">«Environment»</text><text fill="#000000" font-family="sans-serif" font-size="14" font-weight="bold" lengthAdjust="spacing" textLength="69.5625" x="325.2188" y="81.8579">HAW-ICC</text></g><!--cluster p2p_network--><g class="cluster" data-entity="p2p_network" data-source-line="2" data-uid="ent0003" id="cluster_p2p_network"><polygon fill="none" points="40,113.5659,50,103.5659,688,103.5659,688,268.1559,678,278.1559,40,278.1559,40,113.5659" style="stroke:#181818;stroke-width:1;"/><line style="stroke:#181818;stroke-width:1;" x1="678" x2="688" y1="113.5659" y2="103.5659"/><line style="stroke:#181818;stroke-width:1;" x1="40" x2="678" y1="113.5659" y2="113.5659"/><line style="stroke:#181818;stroke-width:1;" x1="678" x2="678" y1="113.5659" y2="278.1559"/><text fill="#000000" font-family="sans-serif" font-size="14" font-style="italic" lengthAdjust="spacing" textLength="68.8721" x="325.564" y="129.561">«Service»</text><text fill="#000000" font-family="sans-serif" font-size="14" font-weight="bold" lengthAdjust="spacing" textLength="109.833" x="305.0835" y="145.8579">P2P Netzwerk</text></g><!--entity crawler--><g class="entity" data-entity="crawler" data-source-line="3" data-uid="ent0004" id="entity_crawler"><rect fill="#F1F1F1" height="62.5938" rx="2.5" ry="2.5" style="stroke:#181818;stroke-width:0.5;" width="156.2109" x="55.89" y="199.5659"/><rect fill="#F1F1F1" height="10" style="stroke:#181818;stroke-width:0.5;" width="15" x="192.1009" y="204.5659"/><rect fill="#F1F1F1" height="2" style="stroke:#181818;stroke-width:0.5;" width="4" x="190.1009" y="206.5659"/><rect fill="#F1F1F1" height="2" style="stroke:#181818;stroke-width:0.5;" width="4" x="190.1009" y="210.5659"/><text fill="#000000" font-family="sans-serif" font-size="14" font-style="italic" lengthAdjust="spacing" textLength="43.0254" x="107.4828" y="232.561">«Pod»</text><text fill="#000000" font-family="sans-serif" font-size="14" lengthAdjust="spacing" textLength="116.2109" x="70.89" y="248.8579">Registry Crawler</text></g><!--entity spv--><g class="entity" data-entity="spv" data-source-line="5" data-uid="ent0005" id="entity_spv"><rect fill="#F1F1F1" height="48.5938" rx="2.5" ry="2.5" style="stroke:#181818;stroke-width:0.5;" width="84.4961" x="358.75" y="208.5659"/><rect fill="#F1F1F1" height="48.5938" rx="2.5" ry="2.5" style="stroke:#181818;stroke-width:0.5;" width="84.4961" x="354.75" y="204.5659"/><text fill="#000000" font-family="sans-serif" font-size="14" font-style="italic" lengthAdjust="spacing" textLength="43.0254" x="375.4854" y="225.561">«Pod»</text><text fill="#000000" font-family="sans-serif" font-size="14" lengthAdjust="spacing" textLength="68.4961" x="362.75" y="241.8579">SPV-Node</text></g><!--entity full_node--><g class="entity" data-entity="full_node" data-source-line="6" data-uid="ent0006" id="entity_full_node"><rect fill="#F1F1F1" height="48.5938" rx="2.5" ry="2.5" style="stroke:#181818;stroke-width:0.5;" width="82.2949" x="589.85" y="208.5659"/><rect fill="#F1F1F1" height="48.5938" rx="2.5" ry="2.5" style="stroke:#181818;stroke-width:0.5;" width="82.2949" x="585.85" y="204.5659"/><text fill="#000000" font-family="sans-serif" font-size="14" font-style="italic" lengthAdjust="spacing" textLength="43.0254" x="605.4848" y="225.561">«Pod»</text><text fill="#000000" font-family="sans-serif" font-size="14" lengthAdjust="spacing" textLength="66.2949" x="593.85" y="241.8579">Full-Node</text></g><!--link crawler to spv--><g class="link" data-entity-1="crawler" data-entity-2="spv" data-source-line="11" data-uid="lnk7" id="link_crawler_spv"><path d="M218.43,230.8559 C264.83,230.8559 309.9,230.8559 348.62,230.8559" fill="none" id="crawler-spv" style="stroke:#181818;stroke-width:1;"/><polygon fill="#181818" points="212.43,230.8559,221.43,234.8559,217.43,230.8559,221.43,226.8559,212.43,230.8559" style="stroke:#181818;stroke-width:1;"/><polygon fill="#181818" points="354.62,230.8559,345.62,226.8559,349.62,230.8559,345.62,234.8559,354.62,230.8559" style="stroke:#181818;stroke-width:1;"/><text fill="#000000" font-family="sans-serif" font-size="13" lengthAdjust="spacing" textLength="106.8374" x="230.43" y="223.9228">P2P Nachrichten</text></g><!--link crawler to full_node--><g class="link" data-entity-1="crawler" data-entity-2="full_node" data-source-line="12" data-uid="lnk8" id="link_crawler_full_node"><path d="M163.378,194.5831 C198.348,153.8431 261.63,89.7159 337,62.5259 C388.84,43.8259 410.09,41.4159 461,62.5259 C530.6,91.3959 583.0378,159.653 609.3078,199.333" fill="none" id="crawler-full_node" style="stroke:#181818;stroke-width:1;"/><polygon fill="#181818" points="159.47,199.1359,168.3671,194.9121,162.7266,195.3419,162.2968,189.7014,159.47,199.1359" style="stroke:#181818;stroke-width:1;"/><polygon fill="#181818" points="612.62,204.3359,610.987,194.6234,609.8598,200.1668,604.3164,199.0396,612.62,204.3359" style="stroke:#181818;stroke-width:1;"/><text fill="#000000" font-family="sans-serif" font-size="13" lengthAdjust="spacing" textLength="106.8374" x="346" y="19.6328">P2P Nachrichten</text></g><!--link spv to full_node--><g class="link" data-entity-1="spv" data-entity-2="full_node" data-source-line="13" data-uid="lnk9" id="link_spv_full_node"><path d="M449.62,230.8559 C490.64,230.8559 539.07,230.8559 579.67,230.8559" fill="none" id="spv-full_node" style="stroke:#181818;stroke-width:1;"/><polygon fill="#181818" points="443.62,230.8559,452.62,234.8559,448.62,230.8559,452.62,226.8559,443.62,230.8559" style="stroke:#181818;stroke-width:1;"/><polygon fill="#181818" points="585.67,230.8559,576.67,226.8559,580.67,230.8559,576.67,234.8559,585.67,230.8559" style="stroke:#181818;stroke-width:1;"/><text fill="#000000" font-family="sans-serif" font-size="13" lengthAdjust="spacing" textLength="106.8374" x="461.55" y="223.9228">P2P Nachrichten</text></g><!--SRC=[XO_12e9048RlFiMmToyU8nP2Yhg89DHHP9rgSPsLTLCgUlVM5KefQDZ33dpVpp-aIuJjwXZkuXYMopLrqcYgaIpdy0Z03Gq8IwCK4hJt7at5e6YXYPgSqFRQL4xCq7HIu5iQHkYwqUIYWEtnB5jhRX2RebTeV88O_yvETScvzoQoKYYirDG2oz93cBWQNckRRgPyqPkhKX_yvBRStp2Lda7Wthj1o7tiOZop41SZnSKYiHdoYVe1-bf_e1S0]--></g></svg>